# xmcd
#
# Track frame offsets: 
#        150
#        15635
#        35890
#        55167
#        78100
#        95737
#        120152
#        143795
#        165522
#        178892
#        200510
#        222107
#        243787
#        266840
#
# Disc length: 3557 seconds
#
# Revision: 0
# Processed by: cddbd v1.5.1PL0 Copyright (c) Steve Scherf et al.
# Submitted via: ExactAudioCopy v0.95a5
#
DISCID=bd0de30e
DTITLE=Eric Clapton - Reptile
DYEAR=1900
DGENRE=Bluegrass
TTITLE0=Reptile
TTITLE1=Got You On My Mind
TTITLE2=Travelin Light
TTITLE3=Belive In Live
TTITLE4=Come Back Baby
TTITLE5=Broken Down
TTITLE6=Find Myself
TTITLE7=I Ain't Gonna Stand For It
TTITLE8=I Want A Little Girl
TTITLE9=Second Nature
TTITLE10=Don't  Let Me Be Lonely Tonight
TTITLE11=Modern Girl
TTITLE12=Superman Inside
TTITLE13=Son and Sylvia
EXTD=
EXTT0=
EXTT1=
EXTT2=
EXTT3=
EXTT4=
EXTT5=
EXTT6=
EXTT7=
EXTT8=
EXTT9=
EXTT10=
EXTT11=
EXTT12=
EXTT13=
PLAYORDER=
